<svg width="24" height="24" viewBox="0 0 24 24" fill="none" xmlns="http://www.w3.org/2000/svg">
<path fill-rule="evenodd" clip-rule="evenodd" d="M12 22C12 22 20 16 20 10C20 7.87827 19.1571 5.84344 17.6569 4.34315C16.1566 2.84285 14.1217 2 12 2C9.87827 2 7.84344 2.84285 6.34315 4.34315C4.84285 5.84344 4 7.87827 4 10C4 16 12 22 12 22ZM15 10C15 11.6569 13.6569 13 12 13C10.3431 13 9 11.6569 9 10C9 8.34315 10.3431 7 12 7C13.6569 7 15 8.34315 15 10Z" fill="#023CB6"/>
<path d="M12 22L11.4 22.8C11.7556 23.0667 12.2444 23.0667 12.6 22.8L12 22ZM17.6569 4.34315L16.9497 5.05025L16.9497 5.05025L17.6569 4.34315ZM6.34315 4.34315L7.05025 5.05025L7.05025 5.05025L6.34315 4.34315ZM19 10C19 12.605 17.2295 15.3616 15.2526 17.5856C14.2876 18.6713 13.3195 19.5792 12.5915 20.2162C12.2282 20.534 11.9266 20.7829 11.7174 20.951C11.6128 21.035 11.5315 21.0987 11.4773 21.1407C11.4502 21.1617 11.4299 21.1773 11.4168 21.1872C11.4103 21.1922 11.4056 21.1958 11.4028 21.1979C11.4014 21.199 11.4004 21.1997 11.3999 21.2C11.3997 21.2002 11.3996 21.2003 11.3996 21.2003C11.3996 21.2003 11.3997 21.2002 11.3997 21.2002C11.3998 21.2001 11.4 21.2 12 22C12.6 22.8 12.6002 22.7998 12.6005 22.7996C12.6006 22.7996 12.6009 22.7993 12.6011 22.7992C12.6016 22.7988 12.6022 22.7983 12.603 22.7978C12.6044 22.7967 12.6064 22.7952 12.6088 22.7933C12.6137 22.7897 12.6205 22.7845 12.6291 22.778C12.6463 22.7648 12.6709 22.746 12.7024 22.7216C12.7654 22.6728 12.8559 22.6017 12.9701 22.51C13.1984 22.3265 13.5218 22.0597 13.9085 21.7213C14.6805 21.0458 15.7124 20.0787 16.7474 18.9144C18.7705 16.6384 21 13.395 21 10H19ZM16.9497 5.05025C18.2625 6.36301 19 8.14348 19 10H21C21 7.61305 20.0518 5.32387 18.364 3.63604L16.9497 5.05025ZM12 3C13.8565 3 15.637 3.7375 16.9497 5.05025L18.364 3.63604C16.6761 1.94821 14.3869 1 12 1V3ZM7.05025 5.05025C8.36301 3.7375 10.1435 3 12 3V1C9.61305 1 7.32387 1.94821 5.63604 3.63604L7.05025 5.05025ZM5 10C5 8.14348 5.7375 6.36301 7.05025 5.05025L5.63604 3.63604C3.94821 5.32387 3 7.61305 3 10H5ZM12 22C12.6 21.2 12.6002 21.2001 12.6003 21.2002C12.6003 21.2002 12.6004 21.2003 12.6004 21.2003C12.6004 21.2003 12.6003 21.2002 12.6001 21.2C12.5996 21.1997 12.5986 21.199 12.5972 21.1979C12.5944 21.1958 12.5897 21.1922 12.5832 21.1872C12.5701 21.1773 12.5498 21.1617 12.5227 21.1407C12.4685 21.0987 12.3872 21.035 12.2826 20.951C12.0734 20.7829 11.7718 20.534 11.4085 20.2162C10.6805 19.5792 9.71242 18.6713 8.74741 17.5856C6.77047 15.3616 5 12.605 5 10H3C3 13.395 5.22953 16.6384 7.25259 18.9144C8.28758 20.0787 9.31946 21.0458 10.0915 21.7213C10.4782 22.0597 10.8016 22.3265 11.0299 22.51C11.1441 22.6017 11.2346 22.6728 11.2976 22.7216C11.3291 22.746 11.3537 22.7648 11.3709 22.778C11.3795 22.7845 11.3863 22.7897 11.3912 22.7933C11.3936 22.7952 11.3956 22.7967 11.397 22.7978C11.3978 22.7983 11.3984 22.7988 11.3989 22.7992C11.3991 22.7993 11.3994 22.7996 11.3995 22.7996C11.3998 22.7998 11.4 22.8 12 22ZM12 14C14.2091 14 16 12.2091 16 10H14C14 11.1046 13.1046 12 12 12V14ZM8 10C8 12.2091 9.79086 14 12 14V12C10.8954 12 10 11.1046 10 10H8ZM12 6C9.79086 6 8 7.79086 8 10H10C10 8.89543 10.8954 8 12 8V6ZM16 10C16 7.79086 14.2091 6 12 6V8C13.1046 8 14 8.89543 14 10H16Z" fill="white"/>
<path d="M12 13C13.6569 13 15 11.6569 15 10C15 8.34315 13.6569 7 12 7C10.3431 7 9 8.34315 9 10C9 11.6569 10.3431 13 12 13Z" stroke="white" stroke-width="2" stroke-linecap="round" stroke-linejoin="round"/>
</svg>
